<svg viewBox="0 0 1513 400" xmlns="http://www.w3.org/2000/svg"><g><g><g><g><g><line x1="30" y1="378" x2="25" y2="378" style="visibility: inherit;" fill="rgb(0, 0, 0)" stroke="rgb(204, 204, 204)" stroke-width="1px"></line><line x1="30" y1="340.2" x2="25" y2="340.2" style="visibility: inherit;" fill="rgb(0, 0, 0)" stroke="rgb(204, 204, 204)" stroke-width="1px"></line><line x1="30" y1="302.4" x2="25" y2="302.4" style="visibility: inherit;" fill="rgb(0, 0, 0)" stroke="rgb(204, 204, 204)" stroke-width="1px"></line><line x1="30" y1="264.6" x2="25" y2="264.6" style="visibility: inherit;" fill="rgb(0, 0, 0)" stroke="rgb(204, 204, 204)" stroke-width="1px"></line><line x1="30" y1="226.79999999999998" x2="25" y2="226.79999999999998" style="visibility: inherit;" fill="rgb(0, 0, 0)" stroke="rgb(204, 204, 204)" stroke-width="1px"></line><line x1="30" y1="189" x2="25" y2="189" style="visibility: inherit;" fill="rgb(0, 0, 0)" stroke="rgb(204, 204, 204)" stroke-width="1px"></line><line x1="30" y1="151.20000000000002" x2="25" y2="151.20000000000002" style="visibility: inherit;" fill="rgb(0, 0, 0)" stroke="rgb(204, 204, 204)" stroke-width="1px"></line><line x1="30" y1="113.40000000000003" x2="25" y2="113.40000000000003" style="visibility: inherit;" fill="rgb(0, 0, 0)" stroke="rgb(204, 204, 204)" stroke-width="1px"></line><line x1="30" y1="75.59999999999997" x2="25" y2="75.59999999999997" style="visibility: inherit;" fill="rgb(0, 0, 0)" stroke="rgb(204, 204, 204)" stroke-width="1px"></line><line x1="30" y1="37.80000000000001" x2="25" y2="37.80000000000001" style="visibility: inherit;" fill="rgb(0, 0, 0)" stroke="rgb(204, 204, 204)" stroke-width="1px"></line><line x1="30" y1="0" x2="25" y2="0" style="visibility: inherit;" fill="rgb(0, 0, 0)" stroke="rgb(204, 204, 204)" stroke-width="1px"></line></g><g transform="translate(20, 0)"><text x="0" y="378" dx="0em" dy="0.3em" style="text-anchor: end; visibility: hidden; font-family: &quot;Helvetica Neue&quot;, sans-serif; font-size: 12px; font-weight: 200;" fill="rgb(50, 49, 63)" stroke="none" stroke-width="1px">-5</text><text x="0" y="340.2" dx="0em" dy="0.3em" style="text-anchor: end; visibility: inherit; font-family: &quot;Helvetica Neue&quot;, sans-serif; font-size: 12px; font-weight: 200;" fill="rgb(50, 49, 63)" stroke="none" stroke-width="1px">0</text><text x="0" y="302.4" dx="0em" dy="0.3em" style="text-anchor: end; visibility: inherit; font-family: &quot;Helvetica Neue&quot;, sans-serif; font-size: 12px; font-weight: 200;" fill="rgb(50, 49, 63)" stroke="none" stroke-width="1px">5</text><text x="0" y="264.6" dx="0em" dy="0.3em" style="text-anchor: end; visibility: inherit; font-family: &quot;Helvetica Neue&quot;, sans-serif; font-size: 12px; font-weight: 200;" fill="rgb(50, 49, 63)" stroke="none" stroke-width="1px">10</text><text x="0" y="226.79999999999998" dx="0em" dy="0.3em" style="text-anchor: end; visibility: inherit; font-family: &quot;Helvetica Neue&quot;, sans-serif; font-size: 12px; font-weight: 200;" fill="rgb(50, 49, 63)" stroke="none" stroke-width="1px">15</text><text x="0" y="189" dx="0em" dy="0.3em" style="text-anchor: end; visibility: inherit; font-family: &quot;Helvetica Neue&quot;, sans-serif; font-size: 12px; font-weight: 200;" fill="rgb(50, 49, 63)" stroke="none" stroke-width="1px">20</text><text x="0" y="151.20000000000002" dx="0em" dy="0.3em" style="text-anchor: end; visibility: inherit; font-family: &quot;Helvetica Neue&quot;, sans-serif; font-size: 12px; font-weight: 200;" fill="rgb(50, 49, 63)" stroke="none" stroke-width="1px">25</text><text x="0" y="113.40000000000003" dx="0em" dy="0.3em" style="text-anchor: end; visibility: inherit; font-family: &quot;Helvetica Neue&quot;, sans-serif; font-size: 12px; font-weight: 200;" fill="rgb(50, 49, 63)" stroke="none" stroke-width="1px">30</text><text x="0" y="75.59999999999997" dx="0em" dy="0.3em" style="text-anchor: end; visibility: inherit; font-family: &quot;Helvetica Neue&quot;, sans-serif; font-size: 12px; font-weight: 200;" fill="rgb(50, 49, 63)" stroke="none" stroke-width="1px">35</text><text x="0" y="37.80000000000001" dx="0em" dy="0.3em" style="text-anchor: end; visibility: inherit; font-family: &quot;Helvetica Neue&quot;, sans-serif; font-size: 12px; font-weight: 200;" fill="rgb(50, 49, 63)" stroke="none" stroke-width="1px">40</text><text x="0" y="0" dx="0em" dy="0.3em" style="text-anchor: end; visibility: hidden; font-family: &quot;Helvetica Neue&quot;, sans-serif; font-size: 12px; font-weight: 200;" fill="rgb(50, 49, 63)" stroke="none" stroke-width="1px">45</text></g><line x1="30" y1="0" x2="30" y2="378" fill="rgb(0, 0, 0)" stroke="rgb(204, 204, 204)" stroke-width="1px"></line></g></g><g transform="translate(30, 0)" clip-path="url(#clip_0)"><clipPath id="clip_0"><rect width="1483" height="378"></rect></clipPath><g><g><g><line x1="0" y1="0" x2="0" y2="378" fill="rgb(0, 0, 0)" stroke="rgb(60, 60, 60)" stroke-width="1px" opacity="0.25"></line><line x1="123.58333333333333" y1="0" x2="123.58333333333333" y2="378" fill="rgb(0, 0, 0)" stroke="rgb(60, 60, 60)" stroke-width="1px" opacity="0.25"></line><line x1="247.16666666666666" y1="0" x2="247.16666666666666" y2="378" fill="rgb(0, 0, 0)" stroke="rgb(60, 60, 60)" stroke-width="1px" opacity="0.25"></line><line x1="370.75" y1="0" x2="370.75" y2="378" fill="rgb(0, 0, 0)" stroke="rgb(60, 60, 60)" stroke-width="1px" opacity="0.25"></line><line x1="494.3333333333333" y1="0" x2="494.3333333333333" y2="378" fill="rgb(0, 0, 0)" stroke="rgb(60, 60, 60)" stroke-width="1px" opacity="0.25"></line><line x1="617.9166666666667" y1="0" x2="617.9166666666667" y2="378" fill="rgb(0, 0, 0)" stroke="rgb(60, 60, 60)" stroke-width="1px" opacity="0.25"></line><line x1="741.5" y1="0" x2="741.5" y2="378" fill="rgb(0, 0, 0)" stroke="rgb(60, 60, 60)" stroke-width="1px" opacity="0.25"></line><line x1="865.0833333333334" y1="0" x2="865.0833333333334" y2="378" fill="rgb(0, 0, 0)" stroke="rgb(60, 60, 60)" stroke-width="1px" opacity="0.25"></line><line x1="988.6666666666666" y1="0" x2="988.6666666666666" y2="378" fill="rgb(0, 0, 0)" stroke="rgb(60, 60, 60)" stroke-width="1px" opacity="0.25"></line><line x1="1112.25" y1="0" x2="1112.25" y2="378" fill="rgb(0, 0, 0)" stroke="rgb(60, 60, 60)" stroke-width="1px" opacity="0.25"></line><line x1="1235.8333333333335" y1="0" x2="1235.8333333333335" y2="378" fill="rgb(0, 0, 0)" stroke="rgb(60, 60, 60)" stroke-width="1px" opacity="0.25"></line><line x1="1359.4166666666665" y1="0" x2="1359.4166666666665" y2="378" fill="rgb(0, 0, 0)" stroke="rgb(60, 60, 60)" stroke-width="1px" opacity="0.25"></line><line x1="1483" y1="0" x2="1483" y2="378" fill="rgb(0, 0, 0)" stroke="rgb(60, 60, 60)" stroke-width="1px" opacity="0.25"></line></g><g><line x1="0" y1="378" x2="1483" y2="378" fill="rgb(0, 0, 0)" stroke="rgb(60, 60, 60)" stroke-width="1px" opacity="0.25"></line><line x1="0" y1="340.2" x2="1483" y2="340.2" fill="rgb(0, 0, 0)" stroke="rgb(60, 60, 60)" stroke-width="1px" opacity="0.25"></line><line x1="0" y1="302.4" x2="1483" y2="302.4" fill="rgb(0, 0, 0)" stroke="rgb(60, 60, 60)" stroke-width="1px" opacity="0.25"></line><line x1="0" y1="264.6" x2="1483" y2="264.6" fill="rgb(0, 0, 0)" stroke="rgb(60, 60, 60)" stroke-width="1px" opacity="0.25"></line><line x1="0" y1="226.79999999999998" x2="1483" y2="226.79999999999998" fill="rgb(0, 0, 0)" stroke="rgb(60, 60, 60)" stroke-width="1px" opacity="0.25"></line><line x1="0" y1="189" x2="1483" y2="189" fill="rgb(0, 0, 0)" stroke="rgb(60, 60, 60)" stroke-width="1px" opacity="0.25"></line><line x1="0" y1="151.20000000000002" x2="1483" y2="151.20000000000002" fill="rgb(0, 0, 0)" stroke="rgb(60, 60, 60)" stroke-width="1px" opacity="0.25"></line><line x1="0" y1="113.40000000000003" x2="1483" y2="113.40000000000003" fill="rgb(0, 0, 0)" stroke="rgb(60, 60, 60)" stroke-width="1px" opacity="0.25"></line><line x1="0" y1="75.59999999999997" x2="1483" y2="75.59999999999997" fill="rgb(0, 0, 0)" stroke="rgb(60, 60, 60)" stroke-width="1px" opacity="0.25"></line><line x1="0" y1="37.80000000000001" x2="1483" y2="37.80000000000001" fill="rgb(0, 0, 0)" stroke="rgb(60, 60, 60)" stroke-width="1px" opacity="0.25"></line><line x1="0" y1="0" x2="1483" y2="0" fill="rgb(0, 0, 0)" stroke="rgb(60, 60, 60)" stroke-width="1px" opacity="0.25"></line></g></g></g><g><g><line x1="0" y1="340.2" x2="1483" y2="340.2" fill="rgb(0, 0, 0)" stroke="rgb(153, 153, 153)" stroke-width="1.5px"></line></g></g><g><g><line x1="123.58333333333333" y1="0" x2="123.58333333333333" y2="378" fill="rgb(0, 0, 0)" stroke="rgb(153, 153, 153)" stroke-width="1.5px"></line></g></g><g><g><g><g><g><path stroke="rgb(255, 112, 67)" stroke-width="2px" d="M127.29083333333332,340.15086000250653L127.90874999999998,340.1815725009399L130.38041666666666,340.1157599989085L130.99833333333333,340.1179934557843L132.23416666666668,339.7879564077565L132.85208333333333,339.74831639518027L133.47,339.05686562496555L134.70583333333335,338.59923295754953L135.32375,338.5465124669638L135.94166666666666,338.5349978666078L136.55958333333334,337.931754170315L139.03125,335.90741397006053L144.5925,334.633560644069L145.21041666666667,332.83075558141337L146.44625000000002,332.26581178997407L148.3,332.80119810513844L148.91791666666666,333.96617217972744L150.15375,334.21440849707676L151.38958333333332,333.27160362155746L152.0075,332.29165442518877L153.24333333333334,331.3529163331497L154.47916666666669,330.16975836827476L155.09708333333333,327.2205835920126L156.95083333333335,324.3926889055275L157.56875,322.73527281580516L158.18666666666667,320.6340404800731L158.80458333333334,317.93387768595227L159.42249999999999,318.4366307876492L161.27625,315.4708495874697L161.89416666666665,313.6445093487256L163.13,313.1444336236527L164.36583333333334,312.77634811029L164.98375000000001,308.8979691423995L165.60166666666666,307.541646207932L166.21958333333333,308.332084303594L168.07333333333332,304.90841100826896L168.69125,305.19024718348777L169.30916666666667,307.68026866540794L169.92708333333331,308.12344200772725L171.16291666666666,306.2544010175676L173.01666666666668,303.38964060824287L176.10625,304.07184081516414L176.72416666666666,301.10486523805866L177.34208333333333,298.73802315396085L177.95999999999998,295.70914970749135L178.57791666666668,295.4113858129406L179.19583333333333,293.0100885143469L182.28541666666666,288.27466228513754L187.22875,283.49048677836674L189.0825,280.6744124130666L189.70041666666668,276.2147826864658L194.02583333333334,273.73405529607635L195.87958333333333,276.4111775929337L197.11541666666665,269.5774658636144L197.73333333333332,268.73559986423743L198.35125000000002,268.2637432956175L200.82291666666666,267.13693538471887L201.44083333333333,266.29906610754017L202.05875,270.5168081490215L203.91250000000002,275.0962141237271L204.53041666666667,276.712881489373L206.38416666666666,271.0421776088337L208.85583333333335,265.6741564340746L210.09166666666667,261.8273735143754L211.3275,265.48716852390845L211.94541666666666,261.15725355269956L212.56333333333333,259.31379340054065L213.18124999999998,255.03251673246308L215.65291666666667,252.3775679313235L216.88875,252.5324708582814L218.74249999999998,246.0361140304718L219.36041666666668,239.2458466561981L219.97833333333335,238.7732701854913L221.21416666666667,240.22398733407312L221.83208333333334,241.68560786980422L222.45,237.36432460652608L224.30374999999998,232.63056497875942L225.53958333333333,227.77329887189921L226.1575,224.50513233827624L227.39333333333332,229.53874358753606L228.01125,233.31642439043668L229.865,237.14643858811942L232.95458333333332,237.16586315287168L233.5725,238.97830986865173L234.1904166666667,237.63297102861293L235.42625,235.47403820188453L236.04416666666668,234.65798453612095L237.28,220.66014142968038L238.51583333333332,220.1102304266559L239.13375000000002,224.52796290198964L239.75166666666664,222.16027401804925L240.36958333333334,225.0639816105366L241.60541666666666,221.19063710474967L242.22333333333333,217.43627969326974L246.54875,206.34451223124503L249.02041666666665,204.89678012317083L251.49208333333334,203.71364458147085L252.11,206.69153001060124L252.72791666666666,213.28037416785978L255.19958333333335,220.21080845457328L257.05333333333334,225.52575098766096L258.90708333333333,215.17777896173718L259.525,215.63389317660284L261.37874999999997,212.43298519795388L261.99666666666667,206.5600748101786L263.23249999999996,206.84808043908566L263.85041666666666,208.8352792021721L264.46833333333336,203.35514518243608L265.70416666666665,199.6678968628796L266.32208333333335,196.59824184087228L267.5579166666667,196.23367462722842L268.17583333333334,194.06294174533122L268.79375,196.04305618489403L270.6475,197.36568814208877L272.50124999999997,191.31747077709898L275.5908333333333,185.33132945112263L276.82666666666665,178.70052719337866L278.0625,178.06507562388856L278.6804166666667,171.3681834968917L281.77,162.81253705126005L283.62375000000003,157.89990104545325L284.2416666666667,151.97972804182277L284.8595833333333,150.48242822524014L285.4775,140.71919390413822L286.7133333333333,132.35889515718017L289.185,121.23725686359523L290.42083333333335,119.45408364086228L291.65666666666664,118.49909203022048L292.89250000000004,118.72443287926512L295.9820833333333,112.30965228127002L297.21791666666667,106.38027275303932L299.68958333333336,108.32632411324937L302.77916666666664,106.49263400652387L304.015,105.13387154160966L304.6329166666667,104.29139570938963L306.4866666666667,103.7571806873525L307.72249999999997,101.57235885796808L308.34041666666667,100.1767883616559L308.95833333333337,96.80836415468883L310.19416666666666,102.9490838309481L310.81208333333336,107.92930305125441L311.43,109.6609606454499L313.9016666666667,105.49413800226017L314.51958333333334,104.02825532332878L315.7554166666667,110.1674271319855L317.6091666666667,107.59427347889834L320.0808333333333,109.8863233952003L320.69875,113.49931842066513L321.31666666666666,114.66163405166662L321.9345833333333,117.0721185535586L323.17041666666665,123.92683274712542L325.0241666666667,130.36058103255255L325.64208333333335,126.4007646656741L326.26,121.7009327373928L328.11375,120.02863987314856L328.7316666666667,117.71738738458248L329.96750000000003,122.92143987703858L333.675,120.7548994792017L334.9108333333333,118.96962453249171L336.76458333333335,117.50987561060828L337.3825,117.11332651992944L338.61833333333334,111.54257241952604L339.23625000000004,112.47303228228202L342.3258333333333,112.99199472337307L342.94375,112.03026961844768L344.1795833333333,106.67682595563895L345.41541666666666,107.22510301967242L346.03333333333336,107.60698902737965L346.65125,109.74880547697461L348.505,117.58539162358716L349.12291666666664,116.25899428201359L350.9766666666667,111.30062236876876L351.59458333333333,110.16267945153464L352.8304166666667,113.984161839622L353.4483333333333,112.67395614918337L354.68416666666667,113.30911065850415L357.15583333333336,112.13284520979977L357.77375,109.81075757143645L358.39166666666665,108.13627174256897L359.6275,106.98038255237736L360.2454166666667,104.83684159197327L362.0991666666667,103.85009006260583L362.71708333333333,105.55022939156737L363.335,105.92166946477442L363.9529166666667,103.21578909341542L365.18874999999997,103.60019553246525L365.8066666666667,107.11187662734051L366.4245833333333,106.71199362166794L367.0425,110.82661966543242L372.60374999999993,115.87638039911292L373.22166666666664,113.62784889986818L374.4575,110.29649675447166L376.31125,108.89341498993889L380.63666666666666,110.28629713239104L381.2545833333333,106.81585106385842L383.72625,105.68916737659634L384.34416666666664,103.4089239183894L384.96208333333334,104.15606898116056L386.1979166666667,105.02620300368659L387.43375,103.40426852462411L389.9054166666667,103.72084480618071L395.46666666666664,106.59307594498773L396.08458333333334,111.47951719785198L396.70250000000004,110.24128682627958L397.3204166666667,109.18234115704706L398.55625,108.87356515565398L399.1741666666667,105.65220443152714L401.0279166666667,99.7322481960257L402.88166666666666,100.44259705604316L407.20708333333334,98.45414795530559L407.82500000000005,98.33761944945286L408.44291666666663,97.65232185277722L409.06083333333333,98.47946589609012L410.2966666666667,99.89051162993923L410.9145833333334,100.97905883953581L411.5325,99.37325994971758L412.7683333333333,98.05294852354149L413.38625,96.53349695836317L414.00416666666666,97.38934631344563L415.24000000000007,94.40257800291113L416.4758333333333,95.08566258543812L417.09375,96.49343310424138L419.56541666666664,94.93401518481045L423.8908333333333,94.84961425004644L425.74458333333337,97.20910436545756L426.36249999999995,98.2331921419796L427.5983333333333,94.38119897659402L428.8341666666667,100.36029589352478L430.68791666666664,101.4650526276676L437.48499999999996,95.83798689886623L439.33875,94.30185579898767L439.9566666666667,92.36410603310361L440.5745833333333,91.02455706468635L441.81041666666664,90.21326030082355L443.04625000000004,91.00110174934179L443.6641666666667,88.70382151103087L444.9,85.80287518200913L447.9895833333333,82.95249763117818L448.60749999999996,80.94137534872641L452.315,85.85075074634523L453.55083333333334,88.48339087749463L454.16875000000005,86.14991129651628L454.78666666666663,84.34612213191372L455.40458333333333,83.99414721713651L456.0225,85.26472734395378L456.6404166666667,83.85281406750511L457.2583333333334,84.74144606989762L457.87625,85.8280132107862L458.4941666666666,83.4786325724678L459.1120833333333,84.55473948000412L460.34791666666666,83.82598925685011L462.20166666666665,91.72892936953974L462.8195833333333,98.44234272914576L463.4375,99.58247097562219L464.67333333333335,94.914072307053L467.145,90.73710756880212L468.3808333333334,90.24189149440622L469.6166666666666,91.07876184976874L472.08833333333337,89.06340267870888L472.70624999999995,89.13787369951052L473.32416666666666,87.74616092624927L474.56,88.89033840145271L475.79583333333335,89.51182999399663L477.03166666666664,90.25516910235501L478.26750000000004,88.35907912254584L478.8854166666667,86.45786928749231L480.7391666666667,86.1850276027688L481.975,85.96386354652458L482.5929166666667,86.72325111131317L483.2108333333333,82.98308134305739L483.82874999999996,83.10375200407668L484.44666666666666,82.79966557012182L485.06458333333336,85.16039651004183L486.3004166666667,84.07901042799779L486.9183333333333,84.56568994820486L490.0079166666667,83.46060421550493L490.6258333333333,82.82779923584593L491.8616666666667,85.2075116337927L492.4795833333333,83.96363765654519L493.0975,83.14321982537246L494.95124999999996,80.9091444806727L496.18708333333336,80.3352889955325L497.42291666666665,80.90725194956559L498.65875,80.06501535430965L499.89458333333334,79.41300921258579L501.13041666666663,82.24539524923114L501.74833333333333,82.49633059436292L502.36625,80.99578346403962L504.22,79.01740306182222L506.69166666666666,78.7738636510582L507.30958333333336,83.33459443575208L508.54541666666665,81.51386499885365L509.1633333333333,81.13509152128483L510.3991666666667,85.05523771306389L512.8708333333333,85.98301939785784L515.9604166666667,85.77462139213264L520.2858333333334,85.6586496052991L520.9037500000001,82.58775714599199L522.1395833333333,84.66280730273189L522.7574999999999,88.42985228935396L523.3754166666666,85.11987414216702L523.9933333333333,86.52076402387439L524.61125,84.827193704852L525.2291666666667,81.24215576148544L526.4649999999999,82.18771527085613L527.0829166666666,81.21280451651762L529.5545833333333,84.86750735590664L530.1725,85.60729927438382L531.4083333333333,87.42861113201315L532.6441666666667,87.39948760205942L534.4979166666667,90.4211367140677L535.73375,91.51441731896796L536.3516666666667,87.71300109938858L536.9695833333333,82.91013647506281L538.8233333333334,84.03975351589708L539.4412500000001,83.44442693863982L540.0591666666667,81.91089517685577L540.6770833333333,81.98415661294945L541.295,83.0124269511681L542.5308333333334,83.03365386357194L543.1487500000001,87.56122210329937L543.7666666666667,87.1857258156906L545.0024999999999,84.6198573033792L545.6204166666666,82.933672011422L546.2383333333333,82.4844157923024L546.85625,84.519153198526L547.4741666666666,85.02633145768982L548.0920833333333,86.41021324228967L549.3279166666666,83.51647865338157L549.9458333333333,84.56987974573991L551.7995833333333,83.45556224685794L554.27125,84.33375171579058L556.125,88.78127336834154L556.7429166666667,90.3898798046963L557.3608333333334,92.50113302197798L558.5966666666667,94.90793539790354L559.2145833333333,92.88349652926945L559.8325,89.01073231697575L560.4504166666667,84.40395055961903L561.68625,81.5899898426074L562.3041666666667,81.38185578300585L562.9220833333334,83.01845673152224L565.39375,81.8352345003392L567.8654166666666,81.50178999219571L568.4833333333333,83.88724190303225L569.7191666666666,86.8804162477764L570.3370833333333,86.66082457776741L570.955,86.61374120662134L571.5729166666667,85.89903958481267L572.1908333333333,84.0670804891688L572.8087499999999,89.30621106205598L574.6625,92.41642060696017L575.2804166666667,94.3233709798987L578.9879166666667,91.20672400395489L580.22375,90.57960923147448L580.8416666666667,86.96160507745896L581.4595833333334,90.40334353963942L582.0775,91.33136427808051L583.3133333333333,86.97568789057874L585.1670833333334,86.39139039548007L585.7850000000001,87.03570356101852L587.63875,84.81560493690404L588.2566666666667,87.43592289866586L588.8745833333334,85.62273653949251L590.1104166666667,85.62497773912514L591.3462499999999,84.02965082804542L593.2,83.25994351196391L593.8179166666666,84.05005955200255L595.05375,81.80554690063514L596.9075,80.46337281811543L597.5254166666666,84.41180365913101L598.1433333333333,85.01786961002944L599.3791666666667,85.07759108974813L599.9970833333333,87.39805837699339L600.615,85.55768201105934L601.8508333333333,84.92369520517076L602.46875,84.33766872222355L603.0866666666667,90.81575424847085L606.17625,89.91561301050825L608.6479166666667,86.4603901451722L609.2658333333334,89.96502894794315L610.5016666666667,89.62593545958623L611.7375,90.08926269176732L612.9733333333334,87.90572552277524L613.5912500000001,85.35425251337222L614.2091666666666,85.21895098312098L614.8270833333333,81.54071385159136L615.4449999999999,79.81609994181423L616.0629166666666,80.24646227221746L617.29875,81.47386991704144L618.5345833333333,82.35244518020534L619.7704166666666,85.3713703063654L621.6241666666667,83.15626633665124L622.86,82.62553977025249L623.4779166666666,86.06744709213194L624.0958333333333,84.41005053066988L626.5675,84.38329167094099L627.8033333333334,83.95747872570911L628.42125,84.89647234284735L629.6570833333333,84.31680149652874L631.5108333333334,84.95482363473366L632.7466666666667,82.67046900994177L633.3645833333333,84.12880002168765L633.9825,82.25195909016105L635.8362500000001,84.94516800780758L637.6899999999999,84.04361197411811L638.3079166666666,87.93889502870917L639.54375,88.30592673890521L640.7795833333333,88.03020533533532L642.0154166666666,85.94907107717773L645.105,90.16928963116993L646.3408333333333,89.35990214784255L646.95875,86.37040033411569L647.5766666666666,84.68858346218815L648.1945833333333,83.56156444498868L650.0483333333334,83.42815125244243L653.7558333333334,83.58700653515689L654.9916666666667,85.0007861964848L655.6095833333334,85.09758750158227L656.2275,84.43141437839074L656.8454166666667,84.46868071931965L657.4633333333334,86.84220098530272L659.9350000000001,86.73616757604492L661.1708333333333,89.86891313107617L661.7887499999999,90.58432553977849L663.6425,94.66051509315423L664.2604166666667,93.35646951731826L664.8783333333333,92.99135564837923L665.4962499999999,94.31906729527759L666.1141666666666,96.58081919186384L667.35,94.12158495994254L667.9679166666667,95.58537278993037L668.5858333333333,98.02855948938787L669.20375,95.77495289333973L670.4395833333333,94.27461358170694L672.2933333333333,95.23417507041091L673.5291666666667,96.97716922681684L674.1470833333334,98.26791359663696L675.3829166666667,92.05389372682981L676.0008333333333,89.16615343580486L677.8545833333334,91.53707255464695L678.4725000000001,86.39150488532727L679.7083333333333,83.79555966947765L680.32625,83.64717534026079L684.6516666666666,82.6176782510314L685.2695833333333,83.01453993401731L685.8875,82.78392909957051L686.5054166666666,80.66484629030873L687.1233333333333,82.52928082106024L687.74125,81.7050275380463L688.3591666666666,82.9507890448005L689.595,85.8498166885991L690.2129166666666,87.85232671970243L690.8308333333333,84.2154258169777L692.6845833333333,86.91402801215929L693.3025,82.77095031559634L693.9204166666666,86.93790600478746L694.5383333333333,85.41767658627089L695.7741666666667,90.35243804404769L699.4816666666667,84.6117390715458L700.0995833333334,81.9853122417556L700.7175,86.6162096839206L701.9533333333334,85.77049088603599L704.425,87.49476846960988L706.2787500000001,88.26927544944164L708.1324999999999,88.39225923939154L710.6041666666667,89.87826618816621L712.4579166666666,87.29679925147394L713.0758333333333,87.8435534888726L713.69375,87.12378883160483L714.9295833333333,87.52504582093559L715.5475,88.37211349109651L716.1654166666666,85.70666756975555L718.0191666666667,84.00156047837675L718.6370833333333,84.50258557901822L719.8729166666667,85.8328722702625L721.10875,81.50536520786056L721.7266666666667,80.93948047725536L722.9625,82.92994219260322L724.1983333333334,82.36424900696818L724.8162500000001,85.01103078845824L726.0520833333333,81.39026031877808L727.2879166666667,86.18358545152074L727.9058333333334,83.64812893204527L728.5237500000001,84.38881034262562L729.1416666666667,87.23427131299724L730.9954166666666,83.87030552461476L731.6133333333333,83.67236611506189L732.23125,85.94558757675196L734.085,83.55825574429338L734.7029166666666,82.12736781425184L739.64625,79.79765970222303L741.5,84.23312188334558L742.1179166666666,85.56686568371828L743.35375,90.85775380964503L744.5895833333333,89.9030104400839L745.2074999999999,87.70628020203861L747.0612500000001,85.2587755675122L747.6791666666667,83.7615490319136L748.915,86.8821047731521L749.5329166666666,86.53634141613736L750.1508333333334,84.92121177106912L750.76875,86.5905666012157L752.6225,87.75547808328804L757.5658333333333,89.17111149596889L758.1837499999999,90.62076034240556L758.8016666666667,89.03203848083393L760.0374999999999,91.27517096447696L761.2733333333333,90.61462119440881L761.89125,89.71026154721164L762.5091666666666,87.7660188057684L763.745,90.67582386891024L764.9808333333334,88.82012872076024L765.59875,85.54152883157724L766.2166666666667,83.9931935440635L768.0704166666667,85.36544963473887L768.6883333333333,85.29975116512071L769.3062500000001,87.03844786704116L772.3958333333334,89.46665844190437L773.6316666666665,86.65368903486922L774.2495833333334,86.8559073906481L775.4854166666668,88.18986535724042L776.1033333333334,87.28924013719575L777.3391666666666,87.98568220487607L781.0466666666666,85.96469301433194L781.6645833333333,85.93447999316948L782.9004166666667,84.9698410110384L784.1362500000001,85.60821808318553L786.6079166666666,84.07856524932538L787.84375,84.83153862469283L789.0795833333334,81.92516963477664L790.3154166666667,79.61737057969412L791.5512499999999,83.91478050211333L792.7870833333333,81.51118922411962L793.4050000000001,81.49938516533115L794.0229166666667,77.54749297664011L794.6408333333334,77.13591759994887L795.25875,77.34558779141469L797.7304166666668,80.64962147367692L798.96625,83.65869097502645L799.5841666666666,84.4949424292542L803.2916666666666,84.08192822610721L804.5274999999999,80.675556410762L805.7633333333333,80.66083012331268L806.3812499999999,78.63952041285478L806.9991666666667,79.44677590738081L810.7066666666666,81.16793486815897L812.5604166666667,82.6587683671845L813.79625,80.23442892802558L815.6500000000001,83.73616107995986L817.5037500000001,83.56315569338614L818.1216666666667,82.49922923146136L819.3575,84.81532495342753L819.9754166666665,83.46523220350184L820.5933333333334,84.34106485921046L821.21125,83.24570257519423L822.4470833333334,83.76935452851501L823.065,84.68229179425748L824.3008333333332,85.42964387538257L824.91875,84.78639093948732L825.5366666666666,86.35696523996194L827.3904166666666,86.5372651425123L828.0083333333333,84.06294880718707L829.2441666666667,83.45985528284734L834.1875,88.35975270828266L834.8054166666666,86.49455304098524L835.4233333333334,88.58994441004035L836.04125,89.81845547659066L837.8949999999999,85.57050254620827L838.5129166666667,84.46417085145544L839.1308333333333,83.86690943226L840.9845833333334,84.19197030535213L841.6025,83.23183892149251L842.2204166666666,83.38605867516117L844.0741666666668,83.89137049562402L851.4891666666667,81.96738223389787L853.3429166666667,83.83093306348326L854.57875,80.2331421134806L855.1966666666666,78.21054200636962L856.4325,77.7348363732554L857.0504166666666,81.45319296164854L858.9041666666667,81.9136585138055L860.7579166666667,83.26647879968954L861.3758333333333,82.9849956172161L861.9937500000001,82.83878478488043L862.6116666666667,82.09030810237357L863.2295833333333,82.63914762997882L863.8475000000001,83.4916043616787L864.4654166666667,84.6804514475736L865.0833333333334,82.95490526795822L866.3191666666665,82.7980514981773L867.555,79.46977132859388L868.1729166666668,79.46713159598443L869.40875,83.45722683356723L870.6445833333332,80.54567191556998L871.8804166666666,78.96354871818966L872.4983333333334,80.43952870601146L873.11625,79.9658255610093L873.7341666666666,79.15089481170327L874.3520833333333,77.31473457989307L874.9699999999999,77.78098631678353L877.4416666666667,77.378830803742L880.53125,82.36754494220617L881.1491666666666,86.1213069335854L882.385,88.46579160644035L883.0029166666667,82.10533684130559L885.4745833333333,80.83073561308413L886.0925000000001,82.79513533757705L886.7104166666667,84.62091329483144L887.94625,84.11970843832461L889.8,80.45327666211591L891.65375,83.33373851924222L892.8895833333332,85.3508104943578L894.1254166666666,82.63590066429049L894.7433333333335,84.21844359681643L895.9791666666666,81.4197154500821L896.5970833333333,80.4874115454399L898.4508333333333,80.08527157326L899.0687499999999,80.55160709678802L899.6866666666667,81.61764333522126L900.9225,81.12779858658195L901.5404166666666,79.61976515048434L902.1583333333333,81.54388887544684L903.3941666666666,81.65509095466257L904.0120833333334,78.7280471265085L904.63,80.27402596877619L905.2479166666667,85.43824022726182L905.8658333333334,86.55907481262659L906.48375,85.01346722644314L909.5733333333333,83.01107288957684L910.1912500000001,79.4660432088437L911.4270833333334,79.74158869386093L913.89875,86.5007480771564L914.5166666666668,85.53640416855944L915.7525,90.81830899283489L918.2241666666666,84.27739231708762L919.46,80.52067440392443L920.6958333333333,81.51592325807735L921.9316666666667,80.70994598365496L922.5495833333333,77.02393780503678L923.1675000000001,73.99434034415486L923.7854166666667,73.80046608393434L925.02125,76.45867167916919L926.875,78.96079272918121L927.4929166666666,77.35943840606342L928.72875,77.21812953533725L929.3466666666667,78.61964279688596L929.9645833333333,79.02206936953786L931.2004166666667,77.23441697572662L933.6720833333334,76.29337802967427L934.9079166666666,79.61156032610535L935.5258333333334,77.08008176451091L936.7616666666668,78.42946342638237L937.3795833333334,76.81686085612233L939.2333333333332,77.76046722168121L939.85125,80.95903051611418L942.9408333333333,79.6515564322271L943.5587499999999,84.46601241158237L944.1766666666667,83.92395070866814L944.7945833333333,87.03851599404857L946.0304166666667,83.30983744066742L947.26625,83.55835406352156L947.8841666666666,81.10682219153091L948.5020833333333,78.85722399118805L949.12,77.9943269484238L949.7379166666666,75.94493198448401L950.3558333333334,77.98877639039745L952.2095833333334,78.13703090992203L954.0633333333333,76.8364575596251L955.2991666666667,79.66828145716175L956.5350000000001,85.03850238259787L957.1529166666667,81.23740001354315L957.7708333333334,86.35041766925872L958.38875,85.92400078466068L959.0066666666665,83.85979994589405L961.4783333333334,81.10775673755597L963.95,77.2762363179242L965.1858333333334,79.57833895872324L965.80375,77.26578334349568L967.6574999999999,77.11657834349978L968.2754166666667,83.50748051440064L968.8933333333333,82.13469344780054L970.7470833333333,78.60606252864125L972.6008333333334,81.11711145517302L973.21875,86.89362502740067L973.8366666666666,85.17640658382317L975.0725,81.23395973398533L975.6904166666667,75.81122282525445L976.3083333333333,74.9964351111683L978.1620833333333,75.04886106670097L979.3979166666667,75.5762570697081L980.0158333333334,73.56119094836782L980.63375,72.55929684441128L981.2516666666666,71.60132828975225L981.8695833333334,74.07020389523808L982.4875,73.49066329173263L983.7233333333334,79.3345807753326L984.34125,82.02293871178153L986.195,86.99108414992048L989.2845833333333,87.74630722823349L996.6995833333334,85.41282156838543L997.3175,86.56196918614842L997.9354166666667,89.62983080368122L998.5533333333334,90.4212194050603L1001.0250000000001,86.44774653561433L1002.8787500000001,80.64957345847802L1003.4966666666667,78.539027766493L1004.7325,80.38439432102865L1005.3504166666665,78.69290539144532L1005.9683333333334,82.70842975830465L1006.58625,84.37988994726794L1007.8220833333334,83.7694600303725L1009.0579166666666,82.34480669449306L1009.6758333333332,80.52082444638336L1010.29375,83.11419608384563L1011.5295833333334,83.96261109513159L1012.1475,85.16868988705949L1012.7654166666666,83.23574744053644L1014.0012499999999,80.35079172604065L1015.2370833333333,82.17756103415957L1018.9445833333334,79.45279797303482L1020.1804166666666,79.53405183069583L1023.2699999999999,81.58469989724563L1023.8879166666667,87.79259246032001L1026.3595833333334,84.90535033703185L1029.4491666666668,82.23556091022692L1030.0670833333334,86.96745977611664L1032.5387500000002,88.16456931049424L1035.0104166666665,84.0217490325856L1036.8641666666667,83.91444144835992L1038.7179166666667,85.27889643639878L1039.3358333333333,84.2967745683822L1039.9537500000001,81.15675126446683L1041.8075000000001,85.07731211121916L1042.4254166666667,82.86491332874317L1044.2791666666667,80.10712335124981L1045.5149999999999,77.96105397901158L1046.1329166666667,77.10887140107889L1046.7508333333333,75.95949074836221L1051.07625,74.72403026444698L1051.6941666666667,73.74083997263301L1052.3120833333332,73.0344965372908L1052.9299999999998,73.37576902833149L1054.1658333333332,73.7891892612372L1054.78375,74.63749866416418L1055.4016666666666,73.62843962818602L1056.0195833333332,72.90506377691156L1056.6375,74.50619128128369L1057.2554166666666,76.25008036935617L1057.8733333333334,76.15788031389889L1058.49125,73.01354538804634L1059.1091666666666,73.50380630997626L1060.9629166666666,74.96523166196226L1062.19875,81.292840413193L1065.2883333333334,77.84541311022048L1065.90625,77.9950650658393L1066.5241666666666,79.31411759174966L1067.76,80.4351570784873L1072.0854166666666,82.33250861476813L1073.32125,83.28040836710312L1076.4108333333334,82.27666683422672L1077.02875,81.62906376020402L1079.5004166666668,84.211576378681L1080.73625,83.68359511920079L1081.3541666666665,81.29688491575877L1082.59,79.42939974828334L1083.2079166666667,76.12558027865748L1084.44375,75.2243630597726L1085.0616666666667,77.0544499281487L1088.7691666666667,78.87977829429161L1089.3870833333333,81.66387442286396L1090.0049999999999,83.45831720742933L1093.0945833333333,82.54065450902789L1093.7125,82.21081451938164L1099.2737499999998,81.91462683418752L1099.8916666666667,82.69098123967262L1101.7454166666666,81.87461852895984L1102.3633333333332,81.44679345624309L1102.98125,83.43390816603102L1104.2170833333334,78.67041600557565L1105.4529166666666,74.87487655647044L1106.68875,75.81508639530801L1108.5425,78.21024208376684L1109.1604166666666,79.97393266481089L1110.39625,77.12513956714827L1111.0141666666666,80.68065112310143L1112.25,77.68675627444674L1113.4858333333334,80.8528113940626L1114.10375,79.98548169727741L1115.3395833333334,82.12469593975317L1115.9575,78.96596313269953L1118.4291666666666,81.48122717161186L1119.0470833333334,80.98396787035L1120.2829166666666,81.27831370560847L1120.9008333333334,78.95105188303307L1121.51875,79.4099148212261L1122.1366666666668,81.24863541617316L1123.3725,81.96328958710626L1123.9904166666668,81.1537537205254L1124.6083333333333,81.24107687831133L1125.2262500000002,82.9687693569673L1127.6979166666665,81.46824672160221L1128.93375,80.60271310864493L1129.5516666666667,78.11778832661275L1130.1695833333333,77.76536696569417L1131.4054166666667,78.4354104259985L1132.6412500000001,79.7824365021811L1133.8770833333333,77.25972325384771L1135.1129166666667,78.24543112027743L1135.7308333333333,77.76030334990082L1136.3487499999999,77.60077917790926L1137.5845833333333,79.18338559756586L1138.2024999999999,79.97720671254342L1138.8204166666667,78.8825291666862L1139.4383333333333,79.2009690991328L1140.05625,78.83107773633515L1140.6741666666667,77.19240427119558L1141.91,76.64162536301035L1142.5279166666667,72.36332592581402L1144.3816666666667,76.09382764777354L1144.9995833333332,73.54664729667195L1146.2354166666667,76.45908926911642L1146.8533333333332,76.43448334662611L1148.7070833333332,76.82343274479206L1149.325,76.05283216884794L1149.9429166666666,76.24969930130874L1150.5608333333334,80.56362188791411L1151.17875,80.60123679241644L1152.4145833333334,80.30627558375056L1154.88625,80.95939230337541L1156.1220833333332,80.3533367980408L1156.74,80.26943133907844L1157.3579166666666,81.2381699728806L1159.2116666666666,85.09289453743929L1159.8295833333334,86.57413619756119L1161.0654166666668,90.73181753396642L1163.5370833333334,86.97128076696191L1164.155,85.31069399728653L1164.7729166666666,83.32700612005164L1165.3908333333334,82.1897073951755L1166.6266666666666,83.28544394394129L1169.0983333333334,83.84913569009518L1169.71625,83.16524648974075L1170.9520833333333,82.32398743241862L1171.5700000000002,82.78842224460743L1172.1879166666668,82.77829980672544L1172.8058333333333,84.7710882214376L1174.0416666666665,83.39786551831179L1175.8954166666667,83.79109235786206L1176.5133333333333,82.80533449186566L1177.13125,84.5620178948264L1177.7491666666667,85.36201304402476L1178.3670833333333,84.49330871752818L1180.2208333333333,80.63661218364189L1180.8387500000001,83.37872493957968L1183.3104166666667,85.86164188513453L1183.9283333333333,87.78381722336587L1185.1641666666667,84.82902562454689L1185.7820833333333,81.60462051388834L1186.4,86.05213046262986L1188.8716666666667,84.42958430785137L1190.7254166666667,81.92893338500375L1191.9612499999998,83.16980418383429L1193.815,81.1140950957498L1194.4329166666666,81.07969607112176L1195.0508333333332,81.79539991806365L1195.66875,80.38773622769367L1196.2866666666666,79.5718733039991L1197.5225,81.08726210495803L1198.1404166666666,81.1709469846545L1198.7583333333334,79.83010914538255L1200.6120833333332,80.73719616349905L1201.23,83.86394465122441L1202.4658333333332,87.0403146667112L1203.08375,87.37365529172592L1203.7016666666666,83.61676055784807L1205.5554166666666,84.90523168871277L1206.79125,83.0686055049269L1207.4091666666668,81.86381259494834L1208.0270833333334,84.44314198812134L1208.645,84.93990008545097L1212.9704166666666,83.13627586670026L1213.5883333333334,82.16599708740301L1215.4420833333334,84.0514080058598L1218.5316666666668,85.97796803349632L1221.0033333333333,86.4141951877736L1222.2391666666667,87.34725984948051L1223.475,86.47825910793051L1224.7108333333333,90.56845174161373L1225.3287500000001,85.81788824467532L1225.9466666666667,84.28752780764506L1226.5645833333333,81.7363487768722L1229.0362499999999,83.8662012949319L1229.6541666666667,88.08040730039664L1230.2720833333333,84.91625182652706L1231.5079166666667,85.53221758761543L1232.1258333333333,84.46993516682704L1232.74375,86.01740525292826L1235.2154166666667,83.73893198232338L1236.45125,81.44197124994093L1237.6870833333332,76.90521998140991L1238.9229166666667,74.99058358796702L1239.5408333333332,77.072947320749L1240.7766666666666,75.51760048473454L1243.2483333333334,77.31808635285239L1244.4841666666666,77.42012061053958L1245.1020833333334,83.66239328917533L1246.9558333333332,82.80220849547783L1248.8095833333332,84.24413485070465L1251.28125,79.52849580300091L1252.5170833333334,79.460030465199L1253.135,79.13620107941239L1254.98875,80.78352295477634L1257.4604166666666,80.71503186368614L1258.0783333333334,80.07064607133668L1258.69625,76.27294757932549L1259.3141666666666,78.98543273216558L1261.1679166666668,81.39462523988527L1261.7858333333334,82.0690290501812L1262.40375,80.85128675383925L1263.6395833333333,83.52415254546759L1264.2575000000002,81.28285712786646L1264.8754166666668,79.44063981382925L1266.11125,84.74316385655925L1266.7291666666665,84.42137225192386L1268.5829166666667,83.0564949820137L1269.2008333333333,80.11623280463789L1270.4366666666667,78.38685546647412L1271.6725000000001,78.47415051132975L1272.2904166666667,77.97918427652445L1272.9083333333333,75.89351056591465L1277.2337499999999,81.39319233808396L1277.8516666666667,80.47452001710815L1278.4695833333333,80.89099570167116L1279.0875,81.54004902012377L1282.795,82.14871593551175L1283.4129166666667,80.56646857497896L1284.0308333333332,83.36989603756547L1284.6487499999998,84.76770269822288L1285.2666666666667,85.37202854032051L1286.5025,82.577560385911L1288.35625,87.68976779892944L1290.21,83.55089046451394L1292.6816666666666,81.01465006239971L1293.2995833333332,82.34907372884607L1293.9175,79.93823909814756L1294.5354166666666,79.86614115175962L1295.1533333333332,82.25418096791122L1296.3891666666666,82.77074014812956L1297.0070833333334,83.34375756544023L1299.47875,86.17178060127583L1301.3325,84.43938183732803L1301.9504166666668,84.5657002083538L1303.8041666666666,87.50672615528572L1304.4220833333334,89.6236403074293L1305.04,89.64638187732862L1305.6579166666666,88.0542881718074L1306.2758333333334,88.00925198023293L1307.5116666666668,94.13002512612803L1308.1295833333334,96.56718298339166L1308.7475,96.55679117431237L1309.3654166666668,94.4972575048804L1309.9833333333333,93.81795911718604L1312.455,92.05108894687413L1313.0729166666665,91.96469059956979L1313.6908333333333,91.61347854431216L1315.5445833333333,93.16121035656772L1316.7804166666667,89.50243507624532L1317.3983333333333,92.16070005941907L1318.0162500000001,88.34571861963582L1319.2520833333333,87.8907818797893L1319.8700000000001,89.08748402045171L1320.4879166666667,89.3670239205718L1321.7237499999999,90.85925903007751L1322.3416666666667,89.24166375544883L1324.1954166666667,87.93997591440205L1325.43125,87.56872083916858L1326.6670833333333,86.6262473960793L1327.285,86.1197335450695L1328.5208333333335,86.32840006356514L1330.3745833333332,89.52295812895937L1331.6104166666667,86.04940927678967L1332.2283333333332,83.1230971651949L1332.84625,83.77441823564038L1334.0820833333332,88.12966583396235L1335.3179166666666,90.55381439295553L1335.9358333333334,93.24663189749214L1336.55375,91.41194190705L1339.0254166666666,86.73978465106592L1339.6433333333332,88.2456879903466L1340.8791666666666,88.53082716188374L1342.115,88.95290321851695L1345.2045833333334,92.08197349849297L1347.67625,85.20038923825592L1348.2941666666668,84.99810286668401L1348.9120833333334,81.0181156262604L1349.53,79.68700749831481L1356.9450000000002,84.21663375924277L1358.1808333333333,89.39745419353392L1359.4166666666665,87.64183811670631" style="fill: none;" fill="none"></path></g></g></g></g><g opacity="0.2"><g><g><g><path stroke="rgb(255, 112, 67)" stroke-width="2px" d="M127.29083333333332,340.15086000250653L127.90874999999998,340.2L130.38041666666666,340.0525799969584L130.99833333333333,340.1206200010702L132.23416666666668,339.35706003785134L132.85208333333333,339.6934799873829L133.47,338.0680799603462L134.70583333333335,337.93200013518333L135.32375,338.468759983778L135.94166666666666,338.51790002703666L136.55958333333334,337.03236000180243L139.03125,332.8819200396538L144.5925,332.7269400072098L145.21041666666667,330.130079870224L146.44625000000002,331.41906017303467L148.3,333.60389998197553L148.91791666666666,335.71314031362533L150.15375,334.5866999459267L151.38958333333332,331.857539935112L152.0075,330.8218202018738L153.24333333333334,329.94486067771913L154.47916666666669,328.3950603532791L155.09708333333333,322.79687965393066L156.95083333333335,320.15088037490847L157.56875,320.2491604614258L158.18666666666667,317.4822009372711L158.80458333333334,313.88364040374756L159.42249999999999,319.1907596683502L161.27625,311.02218051910404L161.89416666666665,310.905L163.13,312.39432020187377L164.36583333333334,312.22421991348267L164.98375000000001,303.0804011535645L165.60166666666666,305.50716190338136L166.21958333333333,309.5177414131165L168.07333333333332,299.7729011535645L168.69125,305.6130014419556L169.30916666666667,311.4153008651733L169.92708333333331,308.7882020187378L171.16291666666666,303.4508395385742L173.01666666666668,299.0925L176.10625,305.09514112472533L176.72416666666666,296.65440187454226L177.34208333333333,295.1877600288391L177.95999999999998,291.16583953857423L178.57791666666668,294.9647399711609L179.19583333333333,289.4081425666809L182.28541666666666,281.1715229415894L187.22875,276.3142235183716L189.0825,276.45030086517335L189.70041666666668,269.52533809661867L194.02583333333334,270.0129642105103L195.87958333333333,280.426861038208L197.11541666666665,259.3268982696533L197.73333333333332,267.4728008651733L198.35125000000002,267.555958442688L200.82291666666666,265.4467235183716L201.44083333333333,265.04226219177247L202.05875,276.8434212112427L203.91250000000002,281.9653230857849L204.53041666666667,279.1378825378418L206.38416666666666,262.5361217880249L208.85583333333335,257.62212467193604L210.09166666666667,256.05719913482665L211.3275,270.97686103820797L211.94541666666666,254.66238109588625L212.56333333333333,256.54860317230225L213.18124999999998,248.61060173034667L215.65291666666667,248.39514472961426L216.88875,252.76482524871824L218.74249999999998,236.29157878875733L219.36041666666668,229.06044559478758L219.97833333333335,238.06440547943114L221.21416666666667,242.4000630569458L221.83208333333334,243.87803867340088L222.45,230.88239971160888L224.30374999999998,225.5299255371094L225.53958333333333,220.4873997116089L226.1575,219.6028825378418L227.39333333333332,237.0891604614258L228.01125,238.9829455947876L229.865,242.89145988464355L232.95458333333332,237.195L233.5725,241.69697994232178L234.1904166666667,235.6149627685547L235.42625,232.23563896179198L236.04416666666668,233.43390403747557L237.28,199.66337677001954L238.51583333333332,219.28536392211913L239.13375000000002,231.15456161499023L239.75166666666664,218.60874069213867L240.36958333333334,229.41954299926758L241.60541666666666,215.38062034606932L242.22333333333333,211.8047435760498L246.54875,189.70686103820802L249.02041666666665,202.72518196105958L251.49208333333334,201.9389412689209L252.11,211.15835815429688L252.72791666666666,223.16364040374756L255.19958333333335,230.60645988464356L257.05333333333334,233.4981647872925L258.90708333333333,199.65582092285155L259.525,216.31806449890135L261.37874999999997,207.63162322998048L261.99666666666667,197.75070922851563L263.23249999999996,207.28008888244628L263.85041666666666,211.81607734680176L264.46833333333336,195.13494415283205L265.70416666666665,194.1370243835449L266.32208333333335,191.99375930786132L267.5579166666667,195.6868238067627L268.17583333333334,190.80684242248535L268.79375,199.0132278442383L270.6475,199.34963607788086L272.50124999999997,182.24514472961425L275.5908333333333,176.35211746215822L276.82666666666665,168.7543238067627L278.0625,177.11189826965332L278.6804166666667,161.3228453063965L281.77,149.9790673828125L283.62375000000003,150.53094703674316L284.2416666666667,143.09946853637695L284.8595833333333,148.23647850036622L285.4775,126.07434242248536L286.7133333333333,119.81844703674318L289.185,104.55479942321779L290.42083333333335,116.7793238067627L291.65666666666664,117.06660461425781L292.89250000000004,119.06244415283203L295.9820833333333,102.68748138427736L297.21791666666667,97.48620346069339L299.68958333333336,111.24540115356444L302.77916666666664,103.74209884643557L304.015,103.0957278442383L304.6329166666667,103.02768196105956L306.4866666666667,102.95585815429689L307.72249999999997,98.29512611389157L308.34041666666667,98.0834326171875L308.95833333333337,91.75572784423827L310.19416666666666,112.16016334533691L310.81208333333336,115.3996318817139L311.43,112.25844703674318L313.9016666666667,99.2439040374756L314.51958333333334,101.82943130493163L315.7554166666667,119.37618484497074L317.6091666666667,103.73454299926755L320.0808333333333,113.32439826965333L320.69875,118.91881095886231L321.31666666666666,116.40510749816895L321.9345833333333,120.68784530639647L323.17041666666665,134.2089040374756L325.0241666666667,140.01120346069337L325.64208333333335,120.46104011535641L326.26,114.65118484497071L328.11375,117.52020057678226L328.7316666666667,114.25050865173341L329.96750000000003,130.72751861572266L333.675,117.50508888244627L334.9108333333333,116.29171211242675L336.76458333333335,115.32025222778321L337.3825,116.51850288391114L338.61833333333334,103.18644126892093L339.23625000000004,113.86872207641602L342.3258333333333,113.77043838500975L342.94375,110.58768196105956L344.1795833333333,98.64666046142577L345.41541666666666,108.04751861572265L346.03333333333336,108.17981803894043L346.65125,112.96153015136719L348.505,129.34027084350586L349.12291666666664,114.26939826965332L350.9766666666667,103.86306449890134L351.59458333333333,108.45576507568359L352.8304166666667,119.71638542175293L353.4483333333333,110.70864761352539L354.68416666666667,114.26184242248536L357.15583333333336,110.36844703674313L357.77375,106.3276261138916L358.39166666666665,105.62454299926759L359.6275,105.24654876708985L360.2454166666667,101.62153015136715L362.0991666666667,102.36996276855467L362.71708333333333,108.1004383850098L363.335,106.47882957458495L363.9529166666667,99.15696853637695L365.18874999999997,104.17680519104005L365.8066666666667,112.37939826965334L366.4245833333333,106.11216911315921L367.0425,116.99855873107907L372.60374999999993,123.45102149963378L373.22166666666664,110.255051651001L374.4575,105.29946853637693L376.31125,106.78879234313962L380.63666666666666,112.37562034606935L381.2545833333333,101.61018196105954L383.72625,103.9991418457031L384.34416666666664,99.98855873107908L384.96208333333334,105.27678657531737L386.1979166666667,106.33140403747558L387.43375,100.97136680603029L389.9054166666667,104.19570922851562L395.46666666666664,110.90142265319821L396.08458333333334,118.80917907714843L396.70250000000004,108.38394126892086L397.3204166666667,107.59392265319826L398.55625,108.41040115356446L399.1741666666667,100.82016334533688L401.0279166666667,90.85231384277347L402.88166666666666,101.50812034606935L407.20708333333334,95.4714743041992L407.82500000000005,98.1628266906738L408.44291666666663,96.62437545776368L409.06083333333333,99.72018196105955L410.2966666666667,102.00708023071286L410.9145833333334,102.61187965393066L411.5325,96.9645616149902L412.7683333333333,96.07248138427735L413.38625,94.2543196105957L414.00416666666666,98.67312034606937L415.24000000000007,89.9224255371094L416.4758333333333,96.11028945922851L417.09375,98.6050888824463L419.56541666666664,92.59488830566403L423.8908333333333,94.7230128479004L425.74458333333337,100.74833953857421L426.36249999999995,99.76932380676271L427.5983333333333,88.6032092285156L428.8341666666667,109.32894126892091L430.68791666666664,103.12218772888184L437.48499999999996,87.3973883056641L439.33875,91.99765914916992L439.9566666666667,89.45748138427734L440.5745833333333,89.01523361206051L441.81041666666664,88.99631515502927L443.04625000000004,92.18286392211911L443.6641666666667,85.25790115356443L444.9,81.45145568847653L447.9895833333333,78.67693130493166L448.60749999999996,77.92469192504882L452.315,93.21481384277342L453.55083333333334,92.43235107421873L454.16875000000005,82.64969192504884L454.78666666666663,81.64043838500976L455.40458333333333,83.46618484497071L456.0225,87.1705975341797L456.6404166666667,81.73494415283204L457.2583333333334,86.07439407348636L457.87625,87.45786392211915L458.4941666666666,79.95456161499027L459.1120833333333,86.16889984130859L460.34791666666666,82.73286392211912L462.20166666666665,103.58333953857425L462.8195833333333,108.51246276855466L463.4375,101.2926633453369L464.67333333333335,87.9114743041992L467.145,84.47166046142581L468.3808333333334,89.49906738281248L469.6166666666666,92.33406738281252L472.08833333333337,86.04036392211913L472.70624999999995,89.24958023071292L473.32416666666666,85.6585917663574L474.56,90.60660461425783L475.79583333333335,90.44406738281253L477.03166666666664,91.37017776489256L478.26750000000004,85.51494415283202L478.8854166666667,83.60605453491212L480.7391666666667,85.77576507568358L481.975,85.63211746215819L482.5929166666667,87.8623324584961L483.2108333333333,77.37282669067383L483.82874999999996,83.2847579956055L484.44666666666666,82.34353591918943L485.06458333333336,88.70149291992186L486.3004166666667,82.45693130493163L486.9183333333333,85.29570922851559L490.0079166666667,81.80297561645506L490.6258333333333,81.87859176635743L491.8616666666667,88.7770802307129L492.4795833333333,82.0978266906738L493.0975,81.91259307861327L494.95124999999996,77.55803146362308L496.18708333333336,79.47450576782228L497.42291666666665,81.76519638061524L498.65875,78.8016604614258L499.89458333333334,78.435L501.13041666666663,86.49397430419918L501.74833333333333,82.87273361206053L502.36625,78.74496276855467L504.22,76.0498324584961L506.69166666666666,78.40855453491213L507.30958333333336,90.17569061279295L508.54541666666665,78.78277084350583L509.1633333333333,80.56693130493164L510.3991666666667,90.93545700073241L512.8708333333333,87.37469192504881L515.9604166666667,85.46202438354493L520.2858333333334,85.48469192504882L520.9037500000001,77.98141845703128L522.1395833333333,87.77538253784178L522.7574999999999,94.08041976928712L523.3754166666666,80.15490692138673L523.9933333333333,88.62209884643556L524.61125,82.28683822631837L525.2291666666667,75.86459884643551L526.4649999999999,83.60605453491212L527.0829166666666,79.75043838500977L529.5545833333333,90.34956161499025L530.1725,86.71698715209959L531.4083333333333,90.16057891845702L532.6441666666667,87.3558023071289L534.4979166666667,94.95361038208006L535.73375,93.15433822631837L536.3516666666667,82.01087677001954L536.9695833333333,75.70583953857425L538.8233333333334,85.73417907714844L539.4412500000001,82.55143707275391L540.0591666666667,79.6105975341797L540.6770833333333,82.09404876708987L541.295,84.5548324584961L542.5308333333334,83.06549423217774L543.1487500000001,94.35257446289063L543.7666666666667,86.62248138427736L545.0024999999999,80.77105453491214L545.6204166666666,80.40439407348634L546.2383333333333,81.81053146362308L546.85625,87.57125930786134L547.4741666666666,85.78709884643553L548.0920833333333,88.48603591918942L549.3279166666666,79.1758767700195L549.9458333333333,86.14998138427734L551.7995833333333,81.78408599853515L554.27125,85.65103591918944L556.125,95.45255584716796L556.7429166666667,92.8027894592285L557.3608333333334,95.6680128479004L558.5966666666667,98.51813896179198L559.2145833333333,89.84683822631837L559.8325,83.20158599853517L560.4504166666667,77.49377792358399L561.68625,77.36904876708985L562.3041666666667,81.06965469360352L562.9220833333334,85.47335815429688L565.39375,80.06040115356444L567.8654166666666,81.00162322998045L568.4833333333333,87.46541976928711L569.7191666666666,91.37017776489256L570.3370833333333,86.33143707275389L570.955,86.54311614990235L571.5729166666667,84.8269871520996L572.1908333333333,81.31914184570314L572.8087499999999,97.16490692138672L574.6625,97.08173492431644L575.2804166666667,97.18379653930663L578.9879166666667,86.53175354003906L580.22375,89.63893707275389L580.8416666666667,81.53459884643553L581.4595833333334,95.56595123291015L582.0775,92.72339538574221L583.3133333333333,80.44217330932617L585.1670833333334,85.51494415283202L585.7850000000001,88.00217330932617L587.63875,81.48545700073242L588.2566666666667,91.36639984130858L588.8745833333334,82.90295700073244L590.1104166666667,85.62833953857421L591.3462499999999,81.63666046142578L593.2,82.10538253784176L593.8179166666666,85.23523361206054L595.05375,78.43877792358398L596.9075,78.45011169433593L597.5254166666666,90.33444992065427L598.1433333333333,85.92696853637693L599.3791666666667,85.16717330932619L599.9970833333333,90.87875930786134L600.615,82.79711746215821L601.8508333333333,83.97271499633786L602.46875,83.45862899780275L603.0866666666667,100.53288253784183L606.17625,88.56540115356444L608.6479166666667,81.277555847168L609.2658333333334,95.22198715209964L610.5016666666667,89.11729522705076L611.7375,90.78425354003906L612.9733333333334,84.63041976928713L613.5912500000001,81.52704299926756L614.2091666666666,85.01599868774417L614.8270833333333,76.02335815429689L615.4449999999999,77.22917907714844L616.0629166666666,80.8920057678223L617.29875,83.31498138427736L618.5345833333333,83.67030807495115L619.7704166666666,89.89975799560546L621.6241666666667,79.83361038208011L622.86,81.82944992065433L623.4779166666666,91.23030807495115L624.0958333333333,81.92395568847655L626.5675,84.34315338134769L627.8033333333334,83.31875930786134L628.42125,86.30496276855467L629.6570833333333,83.4472952270508L631.5108333333334,85.911856842041L632.7466666666667,79.24393707275391L633.3645833333333,86.31629653930662L633.9825,79.43669769287106L635.8362500000001,88.98498138427738L637.6899999999999,82.69127792358398L638.3079166666666,93.78181961059573L639.54375,88.85647430419925L640.7795833333333,87.61662322998046L642.0154166666666,82.8273696899414L645.105,96.4996174621582L646.3408333333333,88.14582092285156L646.95875,81.8861476135254L647.5766666666666,82.16585815429687L648.1945833333333,81.87103591918947L650.0483333333334,83.22803146362304L653.7558333333334,83.82528945922849L654.9916666666667,87.12145568847654L655.6095833333334,85.2427894592285L656.2275,83.43215469360354L656.8454166666667,84.5245802307129L657.4633333333334,90.40248138427734L659.9350000000001,86.57711746215818L661.1708333333333,94.56803146362302L661.7887499999999,91.657444152832L663.6425,100.77479942321776L664.2604166666667,91.40040115356447L664.8783333333333,92.44368484497073L665.4962499999999,96.31063476562497L666.1141666666666,99.97344703674315L667.35,90.43273361206053L667.9679166666667,97.78105453491213L668.5858333333333,101.69333953857421L669.20375,92.39454299926757L670.4395833333333,92.0241046142578L672.2933333333333,96.67351730346678L673.5291666666667,99.59166046142576L674.1470833333334,100.20403015136719L675.3829166666667,82.73286392211912L676.0008333333333,84.83454299926757L677.8545833333334,95.09345123291013L678.4725000000001,78.67315338134767L679.7083333333333,79.90164184570312L680.32625,83.42459884643552L684.6516666666666,81.0734326171875L685.2695833333333,83.6098324584961L685.8875,82.43801284790038L686.5054166666666,77.48622207641603L687.1233333333333,85.3259326171875L687.74125,80.46864761352538L688.3591666666666,84.81943130493164L689.595,90.19835815429684L690.2129166666666,90.85609176635745L690.8308333333333,78.76007446289066L692.6845833333333,90.96193130493162L693.3025,76.55633377075196L693.9204166666666,93.18833953857421L694.5383333333333,83.13733245849608L695.7741666666667,97.75458023071286L699.4816666666667,76.00069061279294L700.0995833333334,78.04567199707031L700.7175,93.56255584716797L701.9533333333334,84.50191268920895L704.425,90.08118484497072L706.2787500000001,89.43103591918947L708.1324999999999,88.57673492431644L710.6041666666667,92.10727661132813L712.4579166666666,83.42459884643552L713.0758333333333,88.6636848449707L713.69375,86.04414184570311L714.9295833333333,88.12693130493165L715.5475,89.64271499633787L716.1654166666666,81.70849868774411L718.0191666666667,81.44389984130856L718.6370833333333,85.25412322998045L719.8729166666667,87.82830230712892L721.10875,75.0141046142578L721.7266666666667,80.09065338134764L722.9625,85.91563476562499L724.1983333333334,81.51570922851562L724.8162500000001,88.9812034606934L726.0520833333333,75.9591046142578L727.2879166666667,93.3735731506348L727.9058333333334,79.844944152832L728.5237500000001,85.49983245849609L729.1416666666667,91.50246276855472L730.9954166666666,78.82435684204103L731.6133333333333,83.37545700073241L732.23125,89.3554197692871L734.085,79.9772579956055L734.7029166666666,79.98103591918942L739.64625,76.3030975341797L741.5,90.88631515502931L742.1179166666666,87.56748138427736L743.35375,98.79408599853514L744.5895833333333,88.47089538574215L745.2074999999999,84.4111848449707L747.0612500000001,81.58751861572267L747.6791666666667,81.51570922851562L748.915,91.56293838500977L749.5329166666666,86.01769638061523L750.1508333333334,82.49851730346683L750.76875,89.09459884643553L752.6225,89.50284530639647L757.5658333333333,91.29456161499024L758.1837499999999,92.79523361206054L758.8016666666667,86.64895568847658L760.0374999999999,94.6398696899414L761.2733333333333,89.62379653930662L761.89125,88.35372207641603L762.5091666666666,84.8496546936035L763.745,95.04053146362304L764.9808333333334,86.03658599853514L765.59875,80.62362899780277L766.2166666666667,81.67069061279295L768.0704166666667,87.42383377075197L768.6883333333333,85.20120346069336L769.3062500000001,89.64649291992185L772.3958333333334,93.10897430419925L773.6316666666665,82.4342349243164L774.2495833333334,87.15923492431642L775.4854166666668,90.19080230712888L776.1033333333334,85.93830230712894L777.3391666666666,89.0303453063965L781.0466666666666,82.93320922851564L781.6645833333333,85.88916046142577L782.9004166666667,83.52288253784178L784.1362500000001,86.56578369140624L786.6079166666666,81.78408599853515L787.84375,85.96099868774411L789.0795833333334,77.56561614990233L790.3154166666667,76.15567199707033L791.5512499999999,90.3608953857422L792.7870833333333,77.90580230712891L793.4050000000001,81.48167907714844L794.0229166666667,71.61965469360354L794.6408333333334,76.51855453491214L795.25875,77.66009307861327L797.7304166666668,85.60567199707032L798.96625,88.17229522705077L799.5841666666666,85.7493196105957L803.2916666666666,83.46240692138673L804.5274999999999,75.56599868774413L805.7633333333333,80.63874069213864L806.3812499999999,75.60755584716799L806.9991666666667,80.65765914916989L810.7066666666666,83.74967330932617L812.5604166666667,84.89501861572268L813.79625,76.5979197692871L815.6500000000001,88.98875930786136L817.5037500000001,83.30364761352536L818.1216666666667,80.90333953857419L819.3575,88.28946853637694L819.9754166666665,81.4400930786133L820.5933333333334,85.65481384277342L821.21125,81.60265914916994L822.4470833333334,84.5548324584961L823.065,86.05169769287107L824.3008333333332,86.55067199707031L824.91875,83.82151153564456L825.5366666666666,88.71282669067381L827.3904166666666,86.8077149963379L828.0083333333333,80.3514743041992L829.2441666666667,82.5552149963379L834.1875,95.70959884643554L834.8054166666666,83.69675354003908L835.4233333333334,91.73303146362304L836.04125,91.66122207641598L837.8949999999999,79.19857315063479L838.5129166666667,82.80467330932618L839.1308333333333,82.9710173034668L840.9845833333334,84.67956161499023L841.6025,81.79164184570311L842.2204166666666,83.61738830566406L844.0741666666668,84.64933822631838L851.4891666666667,79.08139984130861L853.3429166666667,86.62625930786135L854.57875,74.83645568847658L855.1966666666666,75.17664184570316L856.4325,77.02127792358397L857.0504166666666,87.0307278442383L858.9041666666667,82.604356842041L860.7579166666667,85.29570922851559L861.3758333333333,82.56277084350586L861.9937500000001,82.61946853637698L862.6116666666667,80.96759307861328L863.2295833333333,83.46240692138673L863.8475000000001,84.77028945922854L864.4654166666667,86.46372207641605L865.0833333333334,80.36658599853519L866.3191666666665,82.56277084350586L867.555,74.47735107421875L868.1729166666668,79.46317199707033L869.40875,89.44236968994142L870.6445833333332,76.17833953857422L871.8804166666666,76.59036392211914L872.4983333333334,82.65349868774416L873.11625,79.25527084350585L873.7341666666666,77.92849868774414L874.3520833333333,74.56049423217775L874.9699999999999,78.48036392211912L877.4416666666667,76.77559753417967L880.53125,89.85061614990235L881.1491666666666,91.75194992065428L882.385,91.98251861572265L883.0029166666667,72.56465469360353L885.4745833333333,78.91883377075197L886.0925000000001,85.7417349243164L886.7104166666667,87.35958023071288L887.94625,83.36790115356445L889.8,74.95362899780275L891.65375,87.65443130493162L892.8895833333332,88.37641845703126L894.1254166666666,78.56353591918946L894.7433333333335,86.59225799560545L895.9791666666666,77.22162322998048L896.5970833333333,79.08895568847657L898.4508333333333,79.48206161499024L899.0687499999999,81.25111038208007L899.6866666666667,83.2166976928711L900.9225,80.39303146362306L901.5404166666666,77.3577149963379L902.1583333333333,84.43007446289062L903.3941666666666,81.82189407348636L904.0120833333334,74.33748138427734L904.63,82.59299423217772L905.2479166666667,93.18456161499023L905.8658333333334,88.24032669067384L906.48375,82.69505584716796L909.5733333333333,80.00748138427736L910.1912500000001,74.14849868774411L911.4270833333334,80.15490692138673L913.89875,96.6394871520996L914.5166666666668,84.08988830566403L915.7525,98.74116622924805L918.2241666666666,74.4660173034668L919.46,74.88559753417968L920.6958333333333,83.00879653930667L921.9316666666667,79.50098007202149L922.5495833333333,71.4949255371094L923.1675000000001,69.44994415283202L923.7854166666667,73.50965469360352L925.02125,80.44598007202148L926.875,82.71397430419921L927.4929166666666,74.95740692138673L928.72875,77.00616622924804L929.3466666666667,80.72191268920898L929.9645833333333,79.62570922851563L931.2004166666667,74.55293838500978L933.6720833333334,74.8818196105957L934.9079166666666,84.58883377075193L935.5258333333334,73.28286392211913L936.7616666666668,80.45353591918945L937.3795833333334,74.39795700073239L939.2333333333332,79.1758767700195L939.85125,85.75687545776367L942.9408333333333,77.69034530639647L943.5587499999999,91.68769638061525L944.1766666666667,83.11085815429686L944.7945833333333,91.71036392211914L946.0304166666667,77.71681961059573L947.26625,83.93112899780272L947.8841666666666,77.4295243835449L948.5020833333333,75.48282669067385L949.12,76.69998138427735L949.7379166666666,72.87083953857422L950.3558333333334,81.0545429992676L952.2095833333334,78.35941268920897L954.0633333333333,74.88559753417968L955.2991666666667,83.91601730346679L956.5350000000001,93.09383377075198L957.1529166666667,75.53574645996093L957.7708333333334,94.01994415283201L958.38875,85.2843754577637L959.0066666666665,80.76349868774417L961.4783333333334,76.97969192504883L963.95,71.52895568847657L965.1858333333334,83.03149291992185L965.80375,73.7969499206543L967.6574999999999,76.89277084350584L968.2754166666667,93.09383377075198L968.8933333333333,80.07551284790037L970.7470833333333,73.31311614990233L972.6008333333334,84.88368484497067L973.21875,95.55839538574219L973.8366666666666,82.60057891845702L975.0725,75.32028945922855L975.6904166666667,67.67711746215821L976.3083333333333,73.77425354003907L978.1620833333333,75.1275L979.3979166666667,76.36735107421873L980.0158333333334,70.53859176635746L980.63375,71.05645568847655L981.2516666666666,70.16437545776364L981.8695833333334,77.7735173034668L982.4875,72.6213523864746L983.7233333333334,88.10045700073243L984.34125,86.05547561645511L986.195,94.44330230712887L989.2845833333333,88.87914184570315L996.6995833333334,81.91259307861327L997.3175,88.28569061279296L997.9354166666667,94.23162322998047L998.5533333333334,91.6083023071289L1001.0250000000001,80.48753723144534L1002.8787500000001,71.95231384277344L1003.4966666666667,75.37320922851563L1004.7325,83.15244415283206L1005.3504166666665,76.15567199707033L1005.9683333333334,88.73171630859372L1006.58625,86.88708023071291L1007.8220833333334,82.85381515502928L1009.0579166666666,80.20782669067381L1009.6758333333332,77.78485107421875L1010.29375,87.00425354003903L1011.5295833333334,85.23523361206054L1012.1475,86.97780807495116L1012.7654166666666,80.33633377075193L1014.0012499999999,76.02335815429689L1015.2370833333333,84.9177149963379L1018.9445833333334,75.36565338134767L1020.1804166666666,79.65593261718749L1023.2699999999999,84.66067199707032L1023.8879166666667,97.10443130493161L1026.3595833333334,80.5744871520996L1029.4491666666668,78.23087677001956L1030.0670833333334,94.06530807495119L1032.5387500000002,89.96023361206056L1035.0104166666665,77.80751861572264L1036.8641666666667,83.75348007202149L1038.7179166666667,87.32557891845704L1039.3358333333333,82.82359176635742L1039.9537500000001,76.44671630859375L1041.8075000000001,90.95815338134764L1042.4254166666667,79.54631515502928L1044.2791666666667,75.9704383850098L1045.5149999999999,74.74194992065429L1046.1329166666667,75.83059753417967L1046.7508333333333,74.23541976928709L1051.07625,72.87083953857422L1051.6941666666667,72.26605453491214L1052.3120833333332,71.97498138427733L1052.9299999999998,73.88767776489254L1054.1658333333332,74.40931961059567L1054.78375,75.90996276855469L1055.4016666666666,72.11485107421873L1056.0195833333332,71.82L1056.6375,76.90788253784183L1057.2554166666666,78.86591400146483L1057.8733333333334,76.0195802307129L1058.49125,68.29704299926755L1059.1091666666666,74.23919769287107L1060.9629166666666,77.15736968994139L1062.19875,90.78425354003906L1065.2883333333334,72.67427215576168L1065.90625,78.21954299926756L1066.5241666666666,81.29269638061527L1067.76,82.11671630859377L1072.0854166666666,85.17853591918947L1073.32125,84.70225799560546L1076.4108333333334,80.77105453491214L1077.02875,80.65765914916989L1079.5004166666668,88.0853453063965L1080.73625,82.89162322998044L1081.3541666666665,77.71681961059573L1082.59,76.6281719970703L1083.2079166666667,71.16985107421874L1084.44375,73.87253723144528L1085.0616666666667,79.79958023071288L1088.7691666666667,81.61777084350587L1089.3870833333333,85.84001861572267L1090.0049999999999,86.14998138427734L1093.0945833333333,81.16416046142575L1093.7125,81.71605453491208L1099.2737499999998,81.4703453063965L1099.8916666666667,83.8555128479004L1101.7454166666666,80.65007446289064L1102.3633333333332,80.80505584716798L1102.98125,86.41458023071289L1104.2170833333334,71.52517776489259L1105.4529166666666,69.18156738281249L1106.68875,77.22540115356446L1108.5425,81.80297561645506L1109.1604166666666,82.61946853637698L1110.39625,72.8519499206543L1111.0141666666666,86.01391845703125L1112.25,73.19591400146481L1113.4858333333334,85.60189407348633L1114.10375,78.68448715209962L1115.3395833333334,85.3335173034668L1115.9575,74.22786392211913L1118.4291666666666,85.25412322998045L1119.0470833333334,80.23807891845706L1120.2829166666666,81.71983245849611L1120.9008333333334,75.46015914916995L1121.51875,80.09820922851566L1122.1366666666668,84.00671630859375L1123.3725,83.03527084350583L1123.9904166666668,79.93944992065428L1124.6083333333333,81.37206161499023L1125.2262500000002,85.56030807495114L1127.6979166666665,79.2174627685547L1128.93375,79.30441268920902L1129.5516666666667,74.39040115356448L1130.1695833333333,77.23673492431641L1131.4054166666667,79.44047561645505L1132.6412500000001,81.80297561645506L1133.8770833333333,73.47565338134763L1135.1129166666667,79.72399291992184L1135.7308333333333,77.03261169433597L1136.3487499999999,77.36149291992189L1137.5845833333333,81.55729522705082L1138.2024999999999,81.16793838500973L1138.8204166666667,77.24051284790039L1139.4383333333333,79.67862899780272L1140.05625,78.27624069213869L1140.6741666666667,74.73439407348633L1141.91,75.81545700073241L1142.5279166666667,65.94587677001954L1144.3816666666667,81.68958023071292L1144.9995833333332,69.72587677001951L1146.2354166666667,80.82775222778321L1146.8533333333332,76.39757446289065L1148.7070833333332,77.40685684204101L1149.325,74.89693130493163L1149.9429166666666,76.54500000000002L1150.5608333333334,87.03450576782228L1151.17875,80.65765914916989L1152.4145833333334,79.86383377075197L1154.88625,81.93906738281248L1156.1220833333332,79.44425354003903L1156.74,80.14357315063478L1157.3579166666666,82.69127792358398L1159.2116666666666,90.87498138427736L1159.8295833333334,88.79599868774415L1161.0654166666668,96.96833953857418L1163.5370833333334,81.33047561645509L1164.155,82.81981384277344L1164.7729166666666,80.3514743041992L1165.3908333333334,80.48375930786136L1166.6266666666666,84.92904876708985L1169.0983333333334,84.69467330932616L1169.71625,82.139412689209L1170.9520833333333,81.06209884643556L1171.5700000000002,83.48507446289062L1172.1879166666668,82.76311614990237L1172.8058333333333,87.76027084350585L1174.0416666666665,81.33803146362305L1175.8954166666667,84.38093261718751L1176.5133333333333,81.32669769287111L1177.13125,87.19704299926758L1177.7491666666667,86.56200576782226L1178.3670833333333,83.19025222778322L1180.2208333333333,74.8515673828125L1180.8387500000001,87.49189407348632L1183.3104166666667,89.5860173034668L1183.9283333333333,90.66708023071288L1185.1641666666667,80.39683822631838L1185.7820833333333,76.76801284790042L1186.4,92.72339538574221L1188.8716666666667,81.99576507568361L1190.7254166666667,78.17795700073242L1191.9612499999998,85.03111038208004L1193.815,78.03053146362305L1194.4329166666666,81.02809753417972L1195.0508333333332,82.86895568847655L1195.66875,78.27624069213869L1196.2866666666666,78.34807891845702L1197.5225,83.36034530639648L1198.1404166666666,81.29647430419925L1198.7583333333334,77.81885238647459L1200.6120833333332,82.0978266906738L1201.23,88.55406738281249L1202.4658333333332,91.80486968994143L1203.08375,87.87366622924804L1203.7016666666666,77.98141845703128L1205.5554166666666,86.83793838500975L1206.79125,80.31366622924804L1207.4091666666668,80.05662322998046L1208.0270833333334,88.3121360778809L1208.645,85.68503723144528L1212.9704166666666,80.43083953857422L1213.5883333333334,80.71057891845703L1215.4420833333334,86.87952438354489L1218.5316666666668,88.86780807495114L1221.0033333333333,87.06853591918946L1222.2391666666667,88.74685684204098L1223.475,85.17475799560549L1224.7108333333333,96.70374069213864L1225.3287500000001,78.69204299926758L1225.9466666666667,81.99198715209963L1226.5645833333333,77.90958023071289L1229.0362499999999,87.0609800720215L1229.6541666666667,94.40171630859373L1230.2720833333333,80.17001861572265L1231.5079166666667,86.45616622924803L1232.1258333333333,82.87651153564451L1232.74375,88.33861038208005L1235.2154166666667,80.321222076416L1236.45125,77.99653015136715L1237.6870833333332,70.10009307861327L1238.9229166666667,72.11862899780272L1239.5408333333332,80.19649291992187L1240.7766666666666,73.18458023071292L1243.2483333333334,80.0188151550293L1244.4841666666666,77.57317199707035L1245.1020833333334,93.02580230712891L1246.9558333333332,81.51193130493164L1248.8095833333332,86.40702438354492L1251.28125,72.45503723144532L1252.5170833333334,79.3573324584961L1253.135,78.65045700073239L1254.98875,83.25450576782225L1257.4604166666666,80.61229522705077L1258.0783333333334,79.1040673828125L1258.69625,70.57639984130861L1259.3141666666666,83.0541604614258L1261.1679166666668,85.00841400146481L1261.7858333333334,83.080634765625L1262.40375,79.0246733093262L1263.6395833333333,87.53345123291012L1264.2575000000002,77.92091400146484L1264.8754166666668,76.67731384277346L1266.11125,92.69694992065428L1266.7291666666665,83.93868484497074L1268.5829166666667,81.00917907714842L1269.2008333333333,75.70583953857425L1270.4366666666667,75.79278945922852L1271.6725000000001,78.60509307861327L1272.2904166666667,77.23673492431641L1272.9083333333333,72.76499999999999L1277.2337499999999,89.64271499633787L1277.8516666666667,79.09651153564454L1278.4695833333333,81.51570922851562L1279.0875,82.51362899780275L1282.795,83.06171630859376L1283.4129166666667,78.19309753417969L1284.0308333333332,87.57503723144532L1284.6487499999998,86.86441268920902L1285.2666666666667,86.2785173034668L1286.5025,78.38585815429684L1288.35625,95.35807891845701L1290.21,77.34257446289064L1292.6816666666666,77.21028945922853L1293.2995833333332,84.35070922851565L1293.9175,76.32198715209961L1294.5354166666666,79.75799423217774L1295.1533333333332,85.83624069213869L1296.3891666666666,83.54557891845701L1297.0070833333334,84.20328369140628L1299.47875,90.41381515502928L1301.3325,81.84078369140622L1301.9504166666668,84.75517776489261L1303.8041666666666,91.91826507568356L1304.4220833333334,92.79901153564452L1305.04,89.68049423217775L1305.6579166666666,85.66614761352542L1306.2758333333334,87.94169769287106L1307.5116666666668,103.31118484497068L1308.1295833333334,100.2229197692871L1308.7475,96.54120346069334L1309.3654166666668,91.40795700073244L1309.9833333333333,92.79901153564452L1312.455,89.40078369140622L1313.0729166666665,91.83509307861328L1313.6908333333333,91.08666046142577L1315.5445833333333,95.48280807495115L1316.7804166666667,84.01427215576172L1317.3983333333333,96.14809753417967L1318.0162500000001,82.62324645996097L1319.2520833333333,87.20837677001953L1319.8700000000001,90.88253723144533L1320.4879166666667,89.78633377075192L1321.7237499999999,93.09761169433597L1322.3416666666667,86.81527084350586L1324.1954166666667,85.98744415283204L1325.43125,87.01183822631839L1326.6670833333333,85.21253723144531L1327.285,85.35996276855468L1328.5208333333335,86.64139984130861L1330.3745833333332,94.31479522705075L1331.6104166666667,80.83908599853515L1332.2283333333332,78.73362899780273L1332.84625,84.75139984130863L1334.0820833333332,94.6625372314453L1335.3179166666666,94.19003723144533L1335.9358333333334,97.28585815429688L1336.55375,88.65990692138672L1339.0254166666666,79.73154876708986L1339.6433333333332,90.50454299926758L1340.8791666666666,88.95853591918944L1342.115,89.5860173034668L1345.2045833333334,96.77557891845703L1347.67625,74.87801284790038L1348.2941666666668,84.69467330932616L1348.9120833333334,75.04813476562498L1349.53,77.69034530639647L1356.9450000000002,91.01107315063479L1358.1808333333333,97.1686848449707L1359.4166666666665,85.00841400146481" style="fill: none;" fill="none"></path></g></g></g></g></g></g><g transform="translate(30, 378)" clip-path="url(#clip_1)"><clipPath id="clip_1"><rect width="1483" height="22"></rect></clipPath><g><g><line x1="0" y1="0" x2="0" y2="5" style="visibility: inherit;" fill="rgb(0, 0, 0)" stroke="rgb(204, 204, 204)" stroke-width="1px"></line><line x1="123.58333333333333" y1="0" x2="123.58333333333333" y2="5" style="visibility: inherit;" fill="rgb(0, 0, 0)" stroke="rgb(204, 204, 204)" stroke-width="1px"></line><line x1="247.16666666666666" y1="0" x2="247.16666666666666" y2="5" style="visibility: inherit;" fill="rgb(0, 0, 0)" stroke="rgb(204, 204, 204)" stroke-width="1px"></line><line x1="370.75" y1="0" x2="370.75" y2="5" style="visibility: inherit;" fill="rgb(0, 0, 0)" stroke="rgb(204, 204, 204)" stroke-width="1px"></line><line x1="494.3333333333333" y1="0" x2="494.3333333333333" y2="5" style="visibility: inherit;" fill="rgb(0, 0, 0)" stroke="rgb(204, 204, 204)" stroke-width="1px"></line><line x1="617.9166666666667" y1="0" x2="617.9166666666667" y2="5" style="visibility: inherit;" fill="rgb(0, 0, 0)" stroke="rgb(204, 204, 204)" stroke-width="1px"></line><line x1="741.5" y1="0" x2="741.5" y2="5" style="visibility: inherit;" fill="rgb(0, 0, 0)" stroke="rgb(204, 204, 204)" stroke-width="1px"></line><line x1="865.0833333333334" y1="0" x2="865.0833333333334" y2="5" style="visibility: inherit;" fill="rgb(0, 0, 0)" stroke="rgb(204, 204, 204)" stroke-width="1px"></line><line x1="988.6666666666666" y1="0" x2="988.6666666666666" y2="5" style="visibility: inherit;" fill="rgb(0, 0, 0)" stroke="rgb(204, 204, 204)" stroke-width="1px"></line><line x1="1112.25" y1="0" x2="1112.25" y2="5" style="visibility: inherit;" fill="rgb(0, 0, 0)" stroke="rgb(204, 204, 204)" stroke-width="1px"></line><line x1="1235.8333333333335" y1="0" x2="1235.8333333333335" y2="5" style="visibility: inherit;" fill="rgb(0, 0, 0)" stroke="rgb(204, 204, 204)" stroke-width="1px"></line><line x1="1359.4166666666665" y1="0" x2="1359.4166666666665" y2="5" style="visibility: inherit;" fill="rgb(0, 0, 0)" stroke="rgb(204, 204, 204)" stroke-width="1px"></line><line x1="1483" y1="0" x2="1483" y2="5" style="visibility: inherit;" fill="rgb(0, 0, 0)" stroke="rgb(204, 204, 204)" stroke-width="1px"></line></g><g transform="translate(0, 8)"><text x="0" y="0" dx="0em" dy="0.95em" style="text-anchor: middle; visibility: hidden; font-family: &quot;Helvetica Neue&quot;, sans-serif; font-size: 12px; font-weight: 200;" fill="rgb(50, 49, 63)" stroke="none" stroke-width="1px">-200</text><text x="123.58333333333333" y="0" dx="0em" dy="0.95em" style="text-anchor: middle; visibility: inherit; font-family: &quot;Helvetica Neue&quot;, sans-serif; font-size: 12px; font-weight: 200;" fill="rgb(50, 49, 63)" stroke="none" stroke-width="1px">0</text><text x="247.16666666666666" y="0" dx="0em" dy="0.95em" style="text-anchor: middle; visibility: inherit; font-family: &quot;Helvetica Neue&quot;, sans-serif; font-size: 12px; font-weight: 200;" fill="rgb(50, 49, 63)" stroke="none" stroke-width="1px">200</text><text x="370.75" y="0" dx="0em" dy="0.95em" style="text-anchor: middle; visibility: inherit; font-family: &quot;Helvetica Neue&quot;, sans-serif; font-size: 12px; font-weight: 200;" fill="rgb(50, 49, 63)" stroke="none" stroke-width="1px">400</text><text x="494.3333333333333" y="0" dx="0em" dy="0.95em" style="text-anchor: middle; visibility: inherit; font-family: &quot;Helvetica Neue&quot;, sans-serif; font-size: 12px; font-weight: 200;" fill="rgb(50, 49, 63)" stroke="none" stroke-width="1px">600</text><text x="617.9166666666667" y="0" dx="0em" dy="0.95em" style="text-anchor: middle; visibility: inherit; font-family: &quot;Helvetica Neue&quot;, sans-serif; font-size: 12px; font-weight: 200;" fill="rgb(50, 49, 63)" stroke="none" stroke-width="1px">800</text><text x="741.5" y="0" dx="0em" dy="0.95em" style="text-anchor: middle; visibility: inherit; font-family: &quot;Helvetica Neue&quot;, sans-serif; font-size: 12px; font-weight: 200;" fill="rgb(50, 49, 63)" stroke="none" stroke-width="1px">1k</text><text x="865.0833333333334" y="0" dx="0em" dy="0.95em" style="text-anchor: middle; visibility: inherit; font-family: &quot;Helvetica Neue&quot;, sans-serif; font-size: 12px; font-weight: 200;" fill="rgb(50, 49, 63)" stroke="none" stroke-width="1px">1.2k</text><text x="988.6666666666666" y="0" dx="0em" dy="0.95em" style="text-anchor: middle; visibility: inherit; font-family: &quot;Helvetica Neue&quot;, sans-serif; font-size: 12px; font-weight: 200;" fill="rgb(50, 49, 63)" stroke="none" stroke-width="1px">1.4k</text><text x="1112.25" y="0" dx="0em" dy="0.95em" style="text-anchor: middle; visibility: inherit; font-family: &quot;Helvetica Neue&quot;, sans-serif; font-size: 12px; font-weight: 200;" fill="rgb(50, 49, 63)" stroke="none" stroke-width="1px">1.6k</text><text x="1235.8333333333335" y="0" dx="0em" dy="0.95em" style="text-anchor: middle; visibility: inherit; font-family: &quot;Helvetica Neue&quot;, sans-serif; font-size: 12px; font-weight: 200;" fill="rgb(50, 49, 63)" stroke="none" stroke-width="1px">1.8k</text><text x="1359.4166666666665" y="0" dx="0em" dy="0.95em" style="text-anchor: middle; visibility: inherit; font-family: &quot;Helvetica Neue&quot;, sans-serif; font-size: 12px; font-weight: 200;" fill="rgb(50, 49, 63)" stroke="none" stroke-width="1px">2k</text><text x="1483" y="0" dx="0em" dy="0.95em" style="text-anchor: middle; visibility: hidden; font-family: &quot;Helvetica Neue&quot;, sans-serif; font-size: 12px; font-weight: 200;" fill="rgb(50, 49, 63)" stroke="none" stroke-width="1px">2.2k</text></g><line x1="0" y1="0" x2="1483" y2="0" fill="rgb(0, 0, 0)" stroke="rgb(204, 204, 204)" stroke-width="1px"></line></g></g></g></g></svg>